name C:\Users\u0101727\Documents\MyRepositories\upper-imu-dc\Results\main_tracking\Case_24\SHRUG01_angularVelocities_groundFrame.mot
datacolumns 4
datarows 141
range 0.51000000 1.91000000
endheader 
time	radius_imu_x	radius_imu_y	radius_imu_z	
          0.51000000	         -0.06823341	          0.31073069	         -0.11082917	
          0.52000000	         -0.11635610	          0.30971138	         -0.10803906	
          0.53000000	         -0.13334514	          0.29472675	         -0.10219850	
          0.54000000	         -0.12311374	          0.23830835	         -0.08500301	
          0.55000000	         -0.09153558	          0.13297319	         -0.05380578	
          0.56000000	         -0.04626941	         -0.00988972	         -0.01125505	
          0.57000000	          0.00418705	         -0.16633412	          0.03615006	
          0.58000000	          0.05228766	         -0.31080500	          0.08112426	
          0.59000000	          0.09261052	         -0.42396605	          0.11787254	
          0.60000000	          0.12197329	         -0.49509788	          0.14293790	
          0.61000000	          0.13892638	         -0.52106094	          0.15511824	
          0.62000000	          0.14311724	         -0.50410608	          0.15496147	
          0.63000000	          0.13475946	         -0.44970868	          0.14416809	
          0.64000000	          0.11422838	         -0.36458417	          0.12494110	
          0.65000000	          0.08185368	         -0.25535751	          0.09944157	
          0.66000000	          0.03793358	         -0.12811560	          0.06943281	
          0.67000000	         -0.01710838	          0.01146649	          0.03608702	
          0.68000000	         -0.08252278	          0.15775231	          0.00003455	
          0.69000000	         -0.15688123	          0.30376711	         -0.03794970	
          0.70000000	         -0.23726326	          0.43706611	         -0.07497920	
          0.71000000	         -0.31800868	          0.53301733	         -0.10287725	
          0.72000000	         -0.38965251	          0.54909122	         -0.10516678	
          0.73000000	         -0.43894072	          0.42569446	         -0.05659041	
          0.74000000	         -0.45073415	          0.09927463	          0.07192547	
          0.75000000	         -0.41254590	         -0.46594440	          0.29893371	
          0.76000000	         -0.32319905	         -1.21738758	          0.60228791	
          0.77000000	         -0.20436166	         -1.93839417	          0.87975582	
          0.78000000	         -0.18438867	         -1.73653756	          0.69590971	
          0.79000000	         -0.25119959	         -0.54028429	          0.03892260	
          0.80000000	         -0.21330086	          0.04885070	         -0.28481572	
          0.81000000	         -0.09250504	         -0.13628245	         -0.19063570	
          0.82000000	          0.02582823	         -0.55355287	          0.10197273	
          0.83000000	          0.09071973	         -0.83242576	          0.36756584	
          0.84000000	          0.10278155	         -0.49782948	          0.31395195	
          0.85000000	          0.17712101	         -0.43581000	          0.30864254	
          0.86000000	          0.27346104	         -0.45164574	          0.25365849	
          0.87000000	          0.22183445	          0.60123816	         -0.41716182	
          0.88000000	          0.11230593	          1.70013188	         -1.07464522	
          0.89000000	          0.11195979	          1.66719477	         -1.13879341	
          0.90000000	          0.13551907	          1.06932441	         -0.88801984	
          0.91000000	          0.10803109	          0.45012908	         -0.57459085	
          0.92000000	          0.03157192	         -0.09731267	         -0.23912781	
          0.93000000	         -0.07404444	         -0.58641302	          0.12418082	
          0.94000000	         -0.17872931	         -1.08120036	          0.53262260	
          0.95000000	         -0.25802345	         -1.58710221	          0.95863386	
          0.96000000	         -0.29725641	         -1.99969954	          1.29504956	
          0.97000000	         -0.36060366	         -1.70872042	          1.17429166	
          0.98000000	         -0.49854908	         -0.51050368	          0.53439615	
          0.99000000	         -0.68932866	          1.18012956	         -0.49011102	
          1.00000000	         -0.80763730	          2.28100349	         -1.17013536	
          1.01000000	         -0.79933933	          2.17985078	         -1.18603947	
          1.02000000	         -0.72040082	          1.39423628	         -0.78094266	
          1.03000000	         -0.62821831	          0.40283643	         -0.19755630	
          1.04000000	         -0.52765786	         -0.63467039	          0.46784412	
          1.05000000	         -0.42169015	         -1.55015530	          1.09987731	
          1.06000000	         -0.35712689	         -1.83741414	          1.35277863	
          1.07000000	         -0.34639558	         -1.29981488	          1.07454223	
          1.08000000	         -0.32361443	         -0.60786253	          0.67345040	
          1.09000000	         -0.30228260	          0.06884606	          0.27778282	
          1.10000000	         -0.27935354	          0.75513346	         -0.14115846	
          1.11000000	         -0.25652031	          1.50039474	         -0.60085490	
          1.12000000	         -0.26380982	          2.34432022	         -1.11131814	
          1.13000000	         -0.23408208	          2.63539790	         -1.27103091	
          1.14000000	         -0.16200030	          2.25846137	         -0.98665818	
          1.15000000	         -0.09105636	          1.63512951	         -0.54099432	
          1.16000000	         -0.04782988	          1.03433826	         -0.13324032	
          1.17000000	         -0.03857911	          0.55262232	          0.17268509	
          1.18000000	         -0.06026847	          0.21282001	          0.36891314	
          1.19000000	         -0.10618715	          0.00445384	          0.47387886	
          1.20000000	         -0.16903347	         -0.09309279	          0.51236472	
          1.21000000	         -0.24212880	         -0.10201422	          0.50698106	
          1.22000000	         -0.31973514	         -0.04375137	          0.47499295	
          1.23000000	         -0.39698656	          0.06107967	          0.42808643	
          1.24000000	         -0.46972140	          0.19266439	          0.37335325	
          1.25000000	         -0.53425049	          0.33211191	          0.31477409	
          1.26000000	         -0.58702797	          0.46137241	          0.25484101	
          1.27000000	         -0.62425567	          0.56278680	          0.19608974	
          1.28000000	         -0.64159771	          0.61858706	          0.14236388	
          1.29000000	         -0.63431893	          0.61105122	          0.09960867	
          1.30000000	         -0.59812416	          0.52385403	          0.07603715	
          1.31000000	         -0.53067112	          0.34450258	          0.08146460	
          1.32000000	         -0.43318177	          0.06657379	          0.12618399	
          1.33000000	         -0.31247863	         -0.30496602	          0.21569311	
          1.34000000	         -0.18120509	         -0.75006270	          0.34708757	
          1.35000000	         -0.07114467	         -1.15739079	          0.44582448	
          1.36000000	         -0.00829069	         -1.33144634	          0.39013946	
          1.37000000	          0.02453629	         -1.32882893	          0.22622236	
          1.38000000	          0.03546337	         -1.24666645	          0.04009405	
          1.39000000	          0.02775185	         -1.13328418	         -0.13633737	
          1.40000000	          0.00545193	         -1.05286115	         -0.24531751	
          1.41000000	         -0.03728992	         -1.00803993	         -0.31750652	
          1.42000000	         -0.08974555	         -0.96519976	         -0.35754134	
          1.43000000	         -0.14160560	         -0.93508488	         -0.37063506	
          1.44000000	         -0.18319743	         -0.90685047	         -0.35970047	
          1.45000000	         -0.20925614	         -0.87471331	         -0.33242898	
          1.46000000	         -0.21837757	         -0.83695197	         -0.29376214	
          1.47000000	         -0.21205190	         -0.79280803	         -0.24805674	
          1.48000000	         -0.19355070	         -0.74115026	         -0.19953411	
          1.49000000	         -0.16770515	         -0.68156051	         -0.15240329	
          1.50000000	         -0.13844317	         -0.61161049	         -0.11092177	
          1.51000000	         -0.10971947	         -0.52765647	         -0.08012196	
          1.52000000	         -0.08019696	         -0.43586228	         -0.05964947	
          1.53000000	         -0.05538995	         -0.35185999	         -0.04828337	
          1.54000000	         -0.03550712	         -0.29469042	         -0.03783291	
          1.55000000	         -0.01676792	         -0.27272267	         -0.02173916	
          1.56000000	          0.00198089	         -0.28709968	          0.00108312	
          1.57000000	          0.02056504	         -0.33127104	          0.02940828	
          1.58000000	          0.03802240	         -0.39236176	          0.06038328	
          1.59000000	          0.05243855	         -0.45343201	          0.08964085	
          1.60000000	          0.06164179	         -0.49803779	          0.11274004	
          1.61000000	          0.06397368	         -0.51413290	          0.12611016	
          1.62000000	          0.05922154	         -0.49760710	          0.12820358	
          1.63000000	          0.04924134	         -0.45437835	          0.12068205	
          1.64000000	          0.03702448	         -0.39657971	          0.10665650	
          1.65000000	          0.02668609	         -0.33841594	          0.09040189	
          1.66000000	          0.02033466	         -0.28603002	          0.07209114	
          1.67000000	          0.03340238	         -0.26177342	          0.07474447	
          1.68000000	          0.05304144	         -0.25392385	          0.07850504	
          1.69000000	          0.06445917	         -0.25853154	          0.06856619	
          1.70000000	          0.07502469	         -0.27898538	          0.05679799	
          1.71000000	          0.08511539	         -0.30343757	          0.04399517	
          1.72000000	          0.09318116	         -0.32200089	          0.03001580	
          1.73000000	          0.09786163	         -0.32577797	          0.01489607	
          1.74000000	          0.09837985	         -0.30690913	         -0.00179969	
          1.75000000	          0.09535290	         -0.26143801	         -0.01974594	
          1.76000000	          0.09086086	         -0.19014817	         -0.03796278	
          1.77000000	          0.08854214	         -0.09943000	         -0.05422762	
          1.78000000	          0.09314747	         -0.00050868	         -0.06520503	
          1.79000000	          0.10964109	          0.09158765	         -0.06640007	
          1.80000000	          0.14207252	          0.16043507	         -0.05339005	
          1.81000000	          0.19424036	          0.18688443	         -0.01824111	
          1.82000000	          0.25984708	          0.16729749	          0.04096171	
          1.83000000	          0.33482983	          0.13469466	          0.09925249	
          1.84000000	          0.40545360	          0.11022900	          0.15060941	
          1.85000000	          0.46363646	          0.11927875	          0.18465693	
          1.86000000	          0.49611306	          0.20342890	          0.19134366	
          1.87000000	          0.51567894	          0.36921561	          0.16320701	
          1.88000000	          0.50599550	          0.59699716	          0.12183544	
          1.89000000	          0.47789182	          0.87931100	          0.06447760	
          1.90000000	          0.44013589	          1.19131873	         -0.00077909	
          1.91000000	          0.40325925	          1.49345017	         -0.05862095	
